<svg
  viewBox="0 0 1024 1024"
  version="1.1"
  xmlns="http://www.w3.org/2000/svg"
  xmlns:xlink="http://www.w3.org/1999/xlink"
>
  <style>
    rect {
      fill: #cc785c;
    }

    path {
      fill: #faf9f5;
    }
  </style>
  <rect
    x="0"
    y="0"
    width="1024"
    height="1024"
    rx="220"
  />
  <path d="M463.334961,753.669922 L463.334961,652.367188 C463.334961,644.311936 470.544424,637.138672 478.563477,637.138672 L545.436523,637.138672 C553.455576,637.138672 560.665039,644.311936 560.665039,652.367188 L560.665039,837.095703 C560.665039,845.150955 553.455576,851 545.436523,851 L230.93457,851 C222.915518,851 217.030273,845.150955 217.030273,837.095703 L217.030273,782.802734 C217.030273,776.524768 221.029457,771.083571 226.958495,769.098303 L260.729492,756.980469 L260.729492,429.898438 L228.40027,422.81652 C221.756926,421.333557 217.030273,415.547059 217.030273,408.710938 L217.030273,354.417969 C217.030273,346.362717 222.915518,340.513672 230.93457,340.513672 L407.055664,340.513672 C415.074716,340.513672 420.959961,346.362717 420.959961,354.417969 L420.959961,408.710938 C420.959961,415.663484 415.421857,421.517096 408.634961,422.880602 L371.963867,429.898438 L371.963867,753.669922 L463.334961,753.669922 Z"/>
  <path d="M560.665039,437.84375 L560.665039,539.146484 C560.665039,547.201736 553.455576,554.375 545.436523,554.375 L478.563477,554.375 C470.544424,554.375 463.334961,547.201736 463.334961,539.146484 L463.334961,354.417969 C463.334961,346.362717 470.544424,340.513672 478.563477,340.513672 L793.06543,340.513672 C801.084482,340.513672 806.969727,346.362717 806.969727,354.417969 L806.969727,408.710938 C806.969727,414.988904 802.970543,420.430101 797.041505,422.415369 L763.270508,434.533203 L763.270508,761.615234 L795.59973,768.697152 C802.243074,770.180115 806.969727,775.966613 806.969727,782.802734 L806.969727,837.095703 C806.969727,845.150955 801.084482,851 793.06543,851 L616.944336,851 C608.925284,851 603.040039,845.150955 603.040039,837.095703 L603.040039,782.802734 C603.040039,775.850187 608.578143,769.996576 615.365039,768.63307 L652.036133,761.615234 L652.036133,437.84375 L560.665039,437.84375 Z" />
  <path d="M385.206055,187.276733 C385.206055,179.391911 391.75616,173 399.836125,173 L624.163875,173 C632.24384,173 638.793945,179.391911 638.793945,187.276733 L638.793945,234.865845 C638.793945,242.750667 632.24384,249.142578 624.163875,249.142578 L399.836125,249.142578 C391.75616,249.142578 385.206055,242.750667 385.206055,234.865845 L385.206055,187.276733 Z" />
</svg>
