<svg
  viewBox="0 0 1024 1024"
  version="1.1"
  xmlns="http://www.w3.org/2000/svg"
  xmlns:xlink="http://www.w3.org/1999/xlink"
>
  <style>
    rect {
      fill: #0c0c0d;
    }

    path {
      fill: #ffffff;
    }

    @media (prefers-color-scheme: dark) {
      rect {
        fill: #ffffff;
      }

      path {
        fill: #0c0c0d;
      }
    };
  </style>
  <rect
    x="0"
    y="0"
    width="1024"
    height="1024"
    rx="170"
  />
  <path d="M455.295898,793.591797 L455.295898,675.554688 C455.295898,666.168775 463.696305,657.810547 473.040039,657.810547 L550.959961,657.810547 C560.303695,657.810547 568.704102,666.168775 568.704102,675.554688 L568.704102,890.798828 C568.704102,900.184741 560.303695,907 550.959961,907 L184.504883,907 C175.161149,907 168.303711,900.184741 168.303711,890.798828 L168.303711,827.537109 C168.303711,820.222074 172.963527,813.882037 179.871993,811.568819 L219.22168,797.449219 L219.22168,416.335938 L181.551937,408.084146 C173.811167,406.356209 168.303711,399.61383 168.303711,391.648438 L168.303711,328.386719 C168.303711,319.000806 175.161149,312.185547 184.504883,312.185547 L389.719727,312.185547 C399.06346,312.185547 405.920898,319.000806 405.920898,328.386719 L405.920898,391.648438 C405.920898,399.749488 399.467946,406.570067 391.55991,408.158814 L348.831055,416.335938 L348.831055,793.591797 L455.295898,793.591797 Z" />
  <path d="M568.704102,425.59375 L568.704102,543.630859 C568.704102,553.016772 560.303695,561.375 550.959961,561.375 L473.040039,561.375 C463.696305,561.375 455.295898,553.016772 455.295898,543.630859 L455.295898,328.386719 C455.295898,319.000806 463.696305,312.185547 473.040039,312.185547 L839.495117,312.185547 C848.838851,312.185547 855.696289,319.000806 855.696289,328.386719 L855.696289,391.648438 C855.696289,398.963473 851.036473,405.30351 844.128007,407.616727 L804.77832,421.736328 L804.77832,802.849609 L842.448063,811.101401 C850.188833,812.829338 855.696289,819.571717 855.696289,827.537109 L855.696289,890.798828 C855.696289,900.184741 848.838851,907 839.495117,907 L634.280273,907 C624.93654,907 618.079102,900.184741 618.079102,890.798828 L618.079102,827.537109 C618.079102,819.436059 624.532054,812.61548 632.44009,811.026733 L675.168945,802.849609 L675.168945,425.59375 L568.704102,425.59375 Z" />
  <path d="M364.260742,133.635132 C364.260742,124.447802 371.892871,117 381.30758,117 L642.69242,117 C652.107129,117 659.739258,124.447802 659.739258,133.635132 L659.739258,189.085571 C659.739258,198.272901 652.107129,205.720703 642.69242,205.720703 L381.30758,205.720703 C371.892871,205.720703 364.260742,198.272901 364.260742,189.085571 L364.260742,133.635132 Z" />
</svg>
