<svg
  viewBox="0 0 885 1280"
  version="1.1"
  xmlns="http://www.w3.org/2000/svg"
  xmlns:xlink="http://www.w3.org/1999/xlink"
>
  <path d="M472.622999,590.836 C426.681999,610.503 374.545999,632.802 306.975999,632.802 C278.709999,632.746 250.579999,628.868 223.352999,621.274 L270.085999,1101.08 C271.739999,1121.13 280.875999,1139.83 295.678999,1153.46 C310.481999,1167.09 329.869999,1174.65 349.991999,1174.65 C349.991999,1174.65 416.253999,1178.09 438.364999,1178.09 C462.160999,1178.09 533.515999,1174.65 533.515999,1174.65 C553.635999,1174.65 573.018999,1167.08 587.818999,1153.45 C602.618999,1139.82 611.751999,1121.13 613.405999,1101.08 L663.458999,570.876 C641.090999,563.237 618.515999,558.160986 593.067999,558.160986 C549.053999,558.144 513.590999,573.303 472.622999,590.836 Z"/>
  <path d="M305.421999,5.3596804 C370.982999,-0.443233598 436.874999,-1.5357696 502.590999,2.0904704 C557.341999,5.0327704 613.296999,10.1947004 666.516999,24.2352004 C677.825999,27.0375004 688.964999,30.4844004 699.879999,34.5590004 C721.181999,42.8009004 742.603999,55.2584004 752.927999,76.5600004 C760.859999,92.4243004 763.268999,111.85 766.313999,129.143 C769.841999,149.257 773.075999,169.423 776.517999,189.572 C778.375999,200.55 780.750999,212.388 788.785999,220.01 C794.291462,225.233167 801.606765,227.620213 809.037943,229.790255 L810.846909,230.315219 C813.661603,231.129516 816.473221,231.943149 819.189999,232.898 C851.881999,244.409 866.214999,274.503 872.529999,306.352 L872.529999,306.352 L879.566999,341.849 C888.152999,376.021 883.317999,409.918 859.022999,435.916 C843.760999,452.245 823.249999,459.386 801.793999,463.567 C796.351999,464.617 791.391999,467.391 787.648999,471.478 C783.904999,475.565 781.576999,480.749 781.008999,486.263 L781.008999,486.263 L769.600999,597.451 L744.719999,840.061 C737.114999,914.313 729.497999,988.559 721.869999,1062.8 C719.575999,1085.25 717.281999,1107.69 714.986999,1130.13 C706.951999,1207.85 650.652999,1257.95 575.614999,1271.72 C537.003524,1278.83413 497.601336,1279.37255 458.240109,1278.85906 L454.368674,1278.80535 C453.07826,1278.78645 451.787918,1278.76661 450.49768,1278.74603 L446.627301,1278.68226 C438.242275,1278.54012 429.862824,1278.37488 421.496999,1278.24 C381.336999,1277.59 340.798999,1276.28 301.223999,1269.91 C233.464999,1259.04 178.748999,1220.43 170.884999,1148.78 C169.439999,1135.67 168.149999,1122.52 166.772999,1109.41 C159.660999,1040.96 152.531999,972.528 145.384999,904.104 L145.384999,904.104 L120.297999,663.214 L108.167999,546.76 C106.068999,526.629 126.406999,511.418 144.300999,510.627 C165.206999,509.681 178.472999,528.023 180.434999,546.76 C180.692999,549.376 180.967999,551.94 181.243999,554.538 L181.243999,554.538 L197.606999,711.615 L222.899999,954.381 C227.408999,998.039 231.956999,1041.7 236.544999,1085.37 C239.985999,1118.36 243.478999,1156.51 268.755999,1180.87 C297.524999,1208.61 343.172999,1212.05 380.442999,1211.84 C415.354999,1211.65 450.248999,1213.2 485.160999,1213.01 C516.651999,1212.73 548.021999,1209.06 578.729999,1202.07 C612.247999,1194.45 635.217999,1173.61 641.756999,1139.68 C645.903999,1118.1 646.212999,1095.58 648.415999,1073.74 C650.709999,1051.57 653.003999,1029.39 655.297999,1007.2 C663.430999,928.434 671.512999,849.657 679.541999,770.874 C687.238999,695.854 694.935999,620.828 702.632999,545.797 L702.632999,545.797 L706.452999,508.665 C706.845999,504.836 706.376999,500.967 705.079999,497.342 C703.783999,493.718 701.693999,490.429 698.961999,487.717 C696.229999,485.005 692.925999,482.938 689.291999,481.668 C685.657999,480.398 681.785999,479.958 677.958999,480.378 C665.707999,481.732 653.439999,482.982 641.154999,484.129 C490.293999,498.178 338.360999,495.975 187.970999,477.556 C149.686999,472.807 111.505999,467.232 73.5312989,460.35 C33.1649989,453.054 5.10127894,420.431 0.472749939,380.288 C-1.67805106,361.688 4.00008894,342.193 7.64785894,324.075 C11.2955989,305.956 13.7216989,287.597 21.8775989,270.735 C29.8054989,254.916 42.3684989,241.891 57.8905989,233.397 C76.8004989,223.073 96.7943989,221.352 117.699999,224.793 C134.992999,227.598 152.215999,230.798 169.542999,233.397 C174.704999,234.177 179.866999,234.928 185.028999,235.651 C185.68234,235.742682 187.099189,235.93296 188.604459,236.134125 L188.940145,236.178972 C191.015798,236.456193 193.163589,236.741659 193.646221,236.809653 L193.709615,236.818737 C193.894572,236.845979 193.399801,236.784473 191.807999,236.58 L191.823,236.582 L197.899343,237.362907 C201.960155,237.881719 206.020843,238.393157 210.081655,238.890469 L216.172999,239.625 C291.188999,248.322 366.642999,252.712 442.161999,252.771 C461.134999,252.806 480.113999,252.57 499.097999,252.066 C536.355999,251.102 573.538999,249.077 610.647999,245.992 C629.321999,244.443 647.967999,242.608 666.585999,240.486 C676.037999,239.419 685.477999,238.272 694.907999,237.044 L694.907999,237.044 L697.883999,236.649 L700.894999,236.236 L701.032999,236.236 C702.749999,235.997 704.397999,235.408 705.876999,234.504 C707.354999,233.6 708.631999,232.401 709.625999,230.982 C710.620999,229.562 711.311999,227.954 711.656999,226.255 C712.001999,224.557 711.993999,222.806 711.631999,221.111 C706.699999,198.169 701.772999,175.227 696.851999,152.285 C696.825999,152.105 696.785999,151.926 696.730999,151.752 L696.730999,151.752 L694.648999,142.03 C693.014999,134.408 691.672999,126.338 688.712999,119.077 C681.187289,100.540555 662.157522,96.0477997 644.096617,92.5956474 L642.760732,92.34164 C638.981809,91.6262355 635.259129,90.9425254 631.707999,90.1703004 C617.609999,87.1419004 603.437999,84.5667004 589.190999,82.4445004 L589.190999,82.4445004 L584.304999,81.7391004 C581.877999,81.4465004 579.451999,81.1025004 577.042999,80.8099004 C570.745999,80.0357004 564.447999,79.3474004 558.115999,78.6935004 C528.675999,75.6996004 499.114999,73.9618004 469.537999,73.1014004 C408.613999,71.0801004 347.623999,73.2302004 286.993999,79.5366004 C280.025999,80.3625004 272.987999,81.6186004 265.984999,82.0832004 L265.984999,82.0832004 L265.881999,82.0832004 C262.130999,82.6453004 258.391999,83.2188004 254.662999,83.8038004 C243.478999,85.5589004 232.329999,87.5721004 221.265999,89.9293004 L221.265999,89.9293004 L221.024999,89.9293004 C219.736999,90.2152004 218.583999,90.9319004 217.757999,91.9612004 C216.931999,92.9904004 216.481999,94.2706004 216.481999,95.5903004 C216.481999,96.9099004 216.931999,98.1901004 217.757999,99.2193004 C218.583999,100.249 219.736999,100.965 221.024999,101.251 C233.791999,103.953 246.696999,106.189 259.601999,108.134 L259.601999,108.134 L265.916999,109.046 L267.240999,109.235 L273.332999,110.009 C279.732999,110.801 286.133999,111.506 292.551999,112.177 C306.660999,113.611 320.804999,114.793 334.982999,115.722 C366.057999,117.769 397.218999,118.647 428.362999,118.647 C460.056999,118.595 491.767999,117.58 523.393999,115.378 C537.514999,114.414 551.600999,113.175 565.652999,111.661 C572.454999,110.915 579.256999,110.113 586.059999,109.252 L586.059999,109.252 L588.192999,108.942 C591.152999,108.512 594.094999,108.082 597.054999,107.618 C617.133999,104.538 634.890999,112.453 641.498999,132.859 C647.021999,149.928 634.994999,174.43 616.256999,177.304 C600.346999,179.758 584.407999,181.863 568.439999,183.618 C503.869999,190.464 438.886999,192.586 374.006999,189.968 C315.470999,187.851 256.125999,182.879 198.828999,170.215 C178.250999,165.846 158.191999,159.317 138.984999,150.737 C124.238999,144.078 110.335999,134.012 102.127999,119.765 C90.5828989,99.7026004 95.7447989,74.8221004 111.557999,58.7341004 C124.444999,45.6399004 141.909999,38.2240004 158.857999,32.0469004 C205.228999,15.1674004 256.624999,9.7989404 305.421999,5.3596804 Z M181.174999,308.09 C155.639999,304.218 125.666999,293.327 99.8571989,296.355 C83.3217989,298.334 77.9877989,316.865 75.2002989,330.768 C72.1547989,345.944 66.4077989,371.237 78.1081989,383.798 C84.3196989,390.457 94.1101989,392.109 103.143999,393.382 C195.335999,406.407 287.475999,416.749 380.596999,419.932 C510.712999,424.199 641.291999,414.529 769.995999,395.43 C781.472999,393.726 793.087999,390.319 800.795999,382.989 L800.795999,382.989 L800.778999,382.989 C806.138999,377.915 809.358999,370.984 809.777999,363.615 C811.136999,346.701 809.966999,326.673 801.174999,311.703 C790.535229,293.46624 772.522851,295.284737 754.575099,298.604574 L753.277888,298.846918 L753.277888,298.846918 L751.981526,299.092935 C751.117707,299.257824 750.25487,299.424124 749.393848,299.589757 L748.103781,299.837447 C747.030033,300.043006 745.959771,300.245901 744.894621,300.442076 L743.618999,300.674 C719.804999,304.941 695.904999,308.686 671.919999,311.91 C540.324999,329.529 405.924999,331.405 273.744999,319.36 C242.773999,316.538 211.916999,312.781 181.174999,308.09 Z"/>
</svg>
