<svg
  viewBox="0 0 1024 1024"
  version="1.1"
  xmlns="http://www.w3.org/2000/svg"
  xmlns:xlink="http://www.w3.org/1999/xlink"
>
  <polygon
    fill="#000000"
    points="0 0 1024 0 1024 1024 0 1024"
  />
  <path
    fill="#ffffff"
    d="M468.359375,728.71875 L468.359375,637.875 C468.359375,630.651411 474.824498,624.21875 482.015625,624.21875 L541.984375,624.21875 C549.175502,624.21875 555.640625,630.651411 555.640625,637.875 L555.640625,803.53125 C555.640625,810.754839 549.175502,816 541.984375,816 L259.953125,816 C252.761998,816 247.484375,810.754839 247.484375,803.53125 L247.484375,754.84375 C247.484375,749.213951 251.070664,744.334529 256.387559,742.554231 L286.671875,731.6875 L286.671875,438.375 L257.680478,432.024254 C251.723025,430.694399 247.484375,425.505327 247.484375,419.375 L247.484375,370.6875 C247.484375,363.463911 252.761998,358.21875 259.953125,358.21875 L417.890625,358.21875 C425.081752,358.21875 430.359375,363.463911 430.359375,370.6875 L430.359375,419.375 C430.359375,425.609732 425.393052,430.858988 419.306868,432.08172 L386.421875,438.375 L386.421875,728.71875 L468.359375,728.71875 Z"
  />
  <path
    fill="#ffffff"
    d="M555.640625,445.5 L555.640625,536.34375 C555.640625,543.567339 549.175502,550 541.984375,550 L482.015625,550 C474.824498,550 468.359375,543.567339 468.359375,536.34375 L468.359375,370.6875 C468.359375,363.463911 474.824498,358.21875 482.015625,358.21875 L764.046875,358.21875 C771.238002,358.21875 776.515625,363.463911 776.515625,370.6875 L776.515625,419.375 C776.515625,425.004799 772.929336,429.884221 767.612441,431.664519 L737.328125,442.53125 L737.328125,735.84375 L766.319522,742.194496 C772.276975,743.524351 776.515625,748.713423 776.515625,754.84375 L776.515625,803.53125 C776.515625,810.754839 771.238002,816 764.046875,816 L606.109375,816 C598.918248,816 593.640625,810.754839 593.640625,803.53125 L593.640625,754.84375 C593.640625,748.609018 598.606948,743.359762 604.693132,742.13703 L637.578125,735.84375 L637.578125,445.5 L555.640625,445.5 Z"
  />
  <path
    fill="#ffffff"
    d="M398.296875,220.802734 C398.296875,213.731979 404.170716,208 411.416466,208 L612.583534,208 C619.829284,208 625.703125,213.731979 625.703125,220.802734 L625.703125,263.478516 C625.703125,270.549271 619.829284,276.28125 612.583534,276.28125 L411.416466,276.28125 C404.170716,276.28125 398.296875,270.549271 398.296875,263.478516 L398.296875,220.802734 Z"
  />
</svg>
